<svg xmlns="http://www.w3.org/2000/svg" width="155.023" height="54.98" viewBox="0 0 155.023 54.98"><defs><style>.a{fill:#fff;}</style></defs><g transform="translate(6252.11 -9851.359)"><g transform="translate(-6252.11 9851.359)"><path class="a" d="M209.443,246.411v29.035a.868.868,0,0,1-.869.869h-7.5a.868.868,0,0,1-.869-.869v-2.025c-2.031,2.337-5.048,3.756-9.17,3.756-8.061,0-14.71-7.079-14.71-16.249s6.646-16.249,14.71-16.249c4.125,0,7.139,1.415,9.17,3.756v-2.025a.868.868,0,0,1,.869-.869h7.5A.868.868,0,0,1,209.443,246.411Zm-9.233,14.518c0-4.615-3.077-7.508-7.325-7.508s-7.325,2.893-7.325,7.508,3.077,7.508,7.325,7.508S200.21,265.547,200.21,260.929Z" transform="translate(-176.33 -233.274)"/><path class="a" d="M302.635,220.838h4.956a.89.89,0,0,1,.891.891v7.082a.89.89,0,0,1-.891.891h-4.956v21.022a.89.89,0,0,1-.891.891h-7.452a.89.89,0,0,1-.891-.891V229.7h-3.231a.89.89,0,0,1-.891-.891v-7.082a.89.89,0,0,1,.891-.891H293.4c0-8.368,4.593-12.531,14.208-12.256a.893.893,0,0,1,.869.891v7.072a.893.893,0,0,1-.907.891C304.638,217.389,302.635,217.591,302.635,220.838Z" transform="translate(-253.602 -208.57)"/><path class="a" d="M386.213,246.411v29.035a.868.868,0,0,1-.869.869h-7.5a.868.868,0,0,1-.869-.869v-2.025c-2.031,2.337-5.048,3.756-9.17,3.756-8.061,0-14.71-7.079-14.71-16.249s6.646-16.249,14.71-16.249c4.125,0,7.139,1.415,9.17,3.756v-2.025a.868.868,0,0,1,.869-.869h7.5A.868.868,0,0,1,386.213,246.411Zm-9.233,14.518c0-4.615-3.077-7.508-7.325-7.508s-7.325,2.893-7.325,7.508,3.077,7.508,7.325,7.508S376.98,265.547,376.98,260.929Z" transform="translate(-297.263 -233.274)"/><path class="a" d="M496.529,247.41a1.018,1.018,0,0,1,.96,1.358L487.444,277.26c-3.31,9.4-8.636,12.945-16.675,12.859a1.021,1.021,0,0,1-1.008-1.02v-6.633a1.015,1.015,0,0,1,.954-1.017c3.661-.2,5.629-1.213,6.88-4.678l-11.659-27.949a1.018,1.018,0,0,1,.941-1.412h7.913a1.016,1.016,0,0,1,.957.673l6.589,18.163,5.566-18.112a1.023,1.023,0,0,1,.973-.72h7.654Z" transform="translate(-374.402 -235.141)"/><path class="a" d="M594.515,245.542h-7.5a.868.868,0,0,0-.869.869v2.025c-2.031-2.337-5.048-3.756-9.17-3.756-8.061,0-14.71,7.079-14.71,16.249s6.646,16.249,14.71,16.249c4.125,0,7.139-1.415,9.17-3.756v2.025a.868.868,0,0,0,.869.869h7.5a.868.868,0,0,0,.869-.869V246.411A.866.866,0,0,0,594.515,245.542Zm-6.453,19.464a1.533,1.533,0,0,0-.218.458.789.789,0,0,1-.906.524c-.389-.076-.783-.114-1.178-.164-.212-.025-.426-.028-.635-.063-.505-.082-.581-.2-.644-.749a1.616,1.616,0,0,0-1.017-1.282c-.287-.142-.578-.281-.869-.417a1.133,1.133,0,0,1,.354-1.535c.063-.022.12-.038.177-.057a1.969,1.969,0,0,0,.739-.382.323.323,0,0,0,.016-.515,1.033,1.033,0,0,0-.79-.344,1.719,1.719,0,0,0-.8.259l-.18.095a.314.314,0,0,1,.041-.142.843.843,0,0,0-.054-.926,4.524,4.524,0,0,0-.306-.382,1.722,1.722,0,0,1-.458-1.3.638.638,0,0,0-.013-.126.773.773,0,0,0-.344.455,1.367,1.367,0,0,0,.227,1.3,1.471,1.471,0,0,1-.193-.133.722.722,0,0,0-.6-.167.325.325,0,0,1-.347-.145,1.436,1.436,0,0,1-.231-.4,5.637,5.637,0,0,1-.114-.7c-.01-.057-.016-.111-.025-.19a1.068,1.068,0,0,0-.3.651,1.354,1.354,0,0,0,.275,1.083c-.019.041-.038.085-.054.126a.7.7,0,0,0-.063.041c-.281.183-.569.354-.84.546a2.466,2.466,0,0,0-.682.749,1.484,1.484,0,0,1-.392.436,10.647,10.647,0,0,1-1.143.736,4.947,4.947,0,0,1-.872.316.539.539,0,0,0-.4.392,4.017,4.017,0,0,0-.117.606.7.7,0,0,0,.174.575.9.9,0,0,1,.221.449.613.613,0,0,0,.509.509,3.237,3.237,0,0,0,.581.057,2,2,0,0,1,1.1.329,3.376,3.376,0,0,0,1.286.534,1.487,1.487,0,0,1,1.159.938,3.229,3.229,0,0,1,.291.73,1.459,1.459,0,0,1,.028.518c-.13.025-.262.044-.395.063v0c-.022,0-.047,0-.07.006a.213.213,0,0,1-.044.006,0,0,0,0,1,0,0,8.641,8.641,0,0,1-1.121.076c-4.245,0-7.325-2.893-7.325-7.508s3.077-7.508,7.325-7.508a8.125,8.125,0,0,1,2.849.493h0l.051.009a.774.774,0,0,0,.468-.114c.294-.148.559-.357.856-.486.6-.262,1.219-.493,1.819-.73a2.845,2.845,0,0,1-.884,2c.518.84,1.036,1.658,1.532,2.489a1.414,1.414,0,0,1,.208.619,6.88,6.88,0,0,0,.8,2.767q.8,1.606,1.6,3.212A1.056,1.056,0,0,1,588.061,265.007Z" transform="translate(-440.361 -233.274)"/></g><g transform="translate(-6227.994 9898.295)"><path class="a" d="M256.514,357.42a.394.394,0,0,0-.379-.25.4.4,0,0,0-.385.25l-3.032,6.744a.416.416,0,0,0,.528.565.421.421,0,0,0,.224-.218l.651-1.447h4.018l.651,1.447a.4.4,0,0,0,.379.246.411.411,0,0,0,.171-.038.391.391,0,0,0,.224-.234.42.42,0,0,0-.009-.316Zm1.251,4.814H254.5l1.633-3.629Z" transform="translate(-252.675 -357.167)"/><path class="a" d="M281.777,358.024a2.867,2.867,0,0,1,2.1.869.429.429,0,0,0,.584,0,.406.406,0,0,0,.123-.294.393.393,0,0,0-.123-.294,3.786,3.786,0,1,0,0,5.364.415.415,0,0,0,.123-.3v-2.382a.418.418,0,0,0-.126-.3.405.405,0,0,0-.294-.12h-2.723a.421.421,0,0,0-.294.12.416.416,0,0,0,.006.6.419.419,0,0,0,.291.117h2.309v1.791a2.958,2.958,0,0,1-4.062-4.3A2.838,2.838,0,0,1,281.777,358.024Z" transform="translate(-269.994 -357.181)"/><path class="a" d="M310.892,361.048h0a2.4,2.4,0,0,0,.471-1.444,2.448,2.448,0,0,0-2.439-2.445h-3.377a.393.393,0,0,0-.294.123.406.406,0,0,0-.123.294v6.75a.39.39,0,0,0,.12.291.416.416,0,0,0,.594,0,.405.405,0,0,0,.12-.294v-2.281h2.963c.032,0,.066,0,.1,0l1.567,2.508a.407.407,0,0,0,.357.193.382.382,0,0,0,.215-.063.41.41,0,0,0,.19-.259.4.4,0,0,0-.051-.316l-1.415-2.265A2.349,2.349,0,0,0,310.892,361.048Zm-.36-1.44a1.607,1.607,0,0,1-1.608,1.608h-2.963V358h2.963a1.607,1.607,0,0,1,1.608,1.608Z" transform="translate(-288.561 -357.16)"/><path class="a" d="M334.5,357.17a3.8,3.8,0,1,0,2.682,1.112A3.674,3.674,0,0,0,334.5,357.17Zm0,6.753a2.831,2.831,0,0,1-2.094-.869,2.951,2.951,0,0,1,0-4.182,2.951,2.951,0,0,1,4.182,0,2.96,2.96,0,0,1-2.088,5.051Z" transform="translate(-306.061 -357.167)"/><path class="a" d="M364.878,357.17h-5.4a.393.393,0,0,0-.294.123.406.406,0,0,0-.123.294.39.39,0,0,0,.12.291.4.4,0,0,0,.3.13h2.281v6.333a.393.393,0,0,0,.123.294.406.406,0,0,0,.294.123.426.426,0,0,0,.42-.417v-6.333h2.284a.419.419,0,0,0,.294-.123.405.405,0,0,0,.12-.294.427.427,0,0,0-.12-.294A.387.387,0,0,0,364.878,357.17Z" transform="translate(-325.455 -357.167)"/><path class="a" d="M390.878,358.014a.419.419,0,0,0,.294-.123.405.405,0,0,0,.12-.294.427.427,0,0,0-.12-.294.406.406,0,0,0-.294-.123h-5.4a.393.393,0,0,0-.294.123.406.406,0,0,0-.123.294v6.75a.39.39,0,0,0,.12.291.4.4,0,0,0,.3.13h5.4a.419.419,0,0,0,.294-.123.405.405,0,0,0,.12-.294.424.424,0,0,0-.123-.3.419.419,0,0,0-.291-.117h-4.988v-2.543h3.633a.429.429,0,0,0,.3-.123.406.406,0,0,0,.12-.294.422.422,0,0,0-.12-.294.415.415,0,0,0-.3-.123h-3.633v-2.536h4.988Z" transform="translate(-343.243 -357.174)"/><path class="a" d="M414.847,358.024a2.867,2.867,0,0,1,2.1.869.429.429,0,0,0,.584,0,.406.406,0,0,0,.123-.294.393.393,0,0,0-.123-.294,3.786,3.786,0,1,0,0,5.364.419.419,0,0,0,0-.594.427.427,0,0,0-.591,0,2.951,2.951,0,0,1-4.182,0,2.957,2.957,0,0,1,2.088-5.048Z" transform="translate(-361.03 -357.181)"/><path class="a" d="M444.325,357.3l0,0a.417.417,0,0,0-.714.294v2.957h-4.568v-2.957a.427.427,0,0,0-.12-.294.417.417,0,0,0-.588,0,.406.406,0,0,0-.123.294v6.75a.39.39,0,0,0,.12.291.417.417,0,0,0,.594,0,.405.405,0,0,0,.12-.294v-2.957h4.568v2.957a.405.405,0,0,0,.12.294.415.415,0,0,0,.3.123.419.419,0,0,0,.294-.123.405.405,0,0,0,.12-.294v-6.75A.46.46,0,0,0,444.325,357.3Z" transform="translate(-379.604 -357.168)"/></g></g></svg>